<svg xmlns="http://www.w3.org/2000/svg" version="1.1" xmlns:xlink="http://www.w3.org/1999/xlink" xmlns:svgjs="http://svgjs.dev/svgjs" width="1520" height="3730" preserveAspectRatio="none" viewBox="0 0 1520 3730"><g mask="url(&quot;#SvgjsMask1018&quot;)" fill="none"><path d="M113.3 335.04L178.26 372.54L178.26 447.54L113.3 485.04L48.35 447.54L48.35 372.54zM48.35 1572.54L113.3 1610.04L113.3 1685.04L48.35 1722.54L-16.6 1685.04L-16.6 1610.04zM48.35 2022.54L113.3 2060.04L113.3 2135.04L48.35 2172.54L-16.6 2135.04L-16.6 2060.04zM113.3 2810.04L178.26 2847.54L178.26 2922.54L113.3 2960.04L48.35 2922.54L48.35 2847.54zM48.35 2922.54L113.3 2960.04L113.3 3035.04L48.35 3072.54L-16.6 3035.04L-16.6 2960.04zM113.3 3035.04L178.26 3072.54L178.26 3147.54L113.3 3185.04L48.35 3147.54L48.35 3072.54zM178.26 1572.54L243.21 1610.04L243.21 1685.04L178.26 1722.54L113.3 1685.04L113.3 1610.04zM178.26 2472.54L243.21 2510.04L243.21 2585.04L178.26 2622.54L113.3 2585.04L113.3 2510.04zM243.21 3035.04L308.17 3072.54L308.17 3147.54L243.21 3185.04L178.26 3147.54L178.26 3072.54zM178.26 3372.54L243.21 3410.04L243.21 3485.04L178.26 3522.54L113.3 3485.04L113.3 3410.04zM308.17 3147.54L373.12 3185.04L373.12 3260.04L308.17 3297.54L243.21 3260.04L243.21 3185.04zM373.12 3260.04L438.07 3297.54L438.07 3372.54L373.12 3410.04L308.17 3372.54L308.17 3297.54zM308.17 3597.54L373.12 3635.04L373.12 3710.04L308.17 3747.54L243.21 3710.04L243.21 3635.04zM373.12 3710.04L438.07 3747.54L438.07 3822.54L373.12 3860.04L308.17 3822.54L308.17 3747.54zM503.03 560.04L567.98 597.54L567.98 672.54L503.03 710.04L438.07 672.54L438.07 597.54zM503.03 1010.04L567.98 1047.54L567.98 1122.54L503.03 1160.04L438.07 1122.54L438.07 1047.54zM438.07 1572.54L503.03 1610.04L503.03 1685.04L438.07 1722.54L373.12 1685.04L373.12 1610.04zM438.07 2472.54L503.03 2510.04L503.03 2585.04L438.07 2622.54L373.12 2585.04L373.12 2510.04zM503.03 2810.04L567.98 2847.54L567.98 2922.54L503.03 2960.04L438.07 2922.54L438.07 2847.54zM438.07 2922.54L503.03 2960.04L503.03 3035.04L438.07 3072.54L373.12 3035.04L373.12 2960.04zM438.07 3372.54L503.03 3410.04L503.03 3485.04L438.07 3522.54L373.12 3485.04L373.12 3410.04zM438.07 3597.54L503.03 3635.04L503.03 3710.04L438.07 3747.54L373.12 3710.04L373.12 3635.04zM503.03 3710.04L567.98 3747.54L567.98 3822.54L503.03 3860.04L438.07 3822.54L438.07 3747.54zM632.93 1235.04L697.89 1272.54L697.89 1347.54L632.93 1385.04L567.98 1347.54L567.98 1272.54zM632.93 1685.04L697.89 1722.54L697.89 1797.54L632.93 1835.04L567.98 1797.54L567.98 1722.54zM632.93 1910.04L697.89 1947.54L697.89 2022.54L632.93 2060.04L567.98 2022.54L567.98 1947.54zM567.98 2247.54L632.93 2285.04L632.93 2360.04L567.98 2397.54L503.03 2360.04L503.03 2285.04zM762.84 110.04L827.8 147.54L827.8 222.54L762.84 260.04L697.89 222.54L697.89 147.54zM697.89 1572.54L762.84 1610.04L762.84 1685.04L697.89 1722.54L632.93 1685.04L632.93 1610.04zM762.84 2135.04L827.8 2172.54L827.8 2247.54L762.84 2285.04L697.89 2247.54L697.89 2172.54zM697.89 2922.54L762.84 2960.04L762.84 3035.04L697.89 3072.54L632.93 3035.04L632.93 2960.04zM697.89 3147.54L762.84 3185.04L762.84 3260.04L697.89 3297.54L632.93 3260.04L632.93 3185.04zM892.75 785.04L957.7 822.54L957.7 897.54L892.75 935.04L827.79 897.54L827.79 822.54zM957.7 -2.46L1022.66 35.04L1022.66 110.04L957.7 147.54L892.75 110.04L892.75 35.04zM1022.66 110.04L1087.61 147.54L1087.61 222.54L1022.66 260.04L957.7 222.54L957.7 147.54zM1022.66 560.04L1087.61 597.54L1087.61 672.54L1022.66 710.04L957.7 672.54L957.7 597.54zM957.7 1572.54L1022.66 1610.04L1022.66 1685.04L957.7 1722.54L892.75 1685.04L892.75 1610.04zM1022.66 2135.04L1087.61 2172.54L1087.61 2247.54L1022.66 2285.04L957.7 2247.54L957.7 2172.54zM957.7 2922.54L1022.66 2960.04L1022.66 3035.04L957.7 3072.54L892.75 3035.04L892.75 2960.04zM1152.56 110.04L1217.52 147.54L1217.52 222.54L1152.56 260.04L1087.61 222.54L1087.61 147.54zM1152.56 3260.04L1217.52 3297.54L1217.52 3372.54L1152.56 3410.04L1087.61 3372.54L1087.61 3297.54zM1087.61 3372.54L1152.56 3410.04L1152.56 3485.04L1087.61 3522.54L1022.66 3485.04L1022.66 3410.04zM1217.52 -2.46L1282.47 35.04L1282.47 110.04L1217.52 147.54L1152.56 110.04L1152.56 35.04zM1217.52 1797.54L1282.47 1835.04L1282.47 1910.04L1217.52 1947.54L1152.56 1910.04L1152.56 1835.04zM1282.47 1910.04L1347.42 1947.54L1347.42 2022.54L1282.47 2060.04L1217.52 2022.54L1217.52 1947.54zM1217.52 2022.54L1282.47 2060.04L1282.47 2135.04L1217.52 2172.54L1152.56 2135.04L1152.56 2060.04zM1217.52 2697.54L1282.47 2735.04L1282.47 2810.04L1217.52 2847.54L1152.56 2810.04L1152.56 2735.04zM1412.38 110.04L1477.33 147.54L1477.33 222.54L1412.38 260.04L1347.42 222.54L1347.42 147.54zM1347.42 1797.54L1412.38 1835.04L1412.38 1910.04L1347.42 1947.54L1282.47 1910.04L1282.47 1835.04zM1412.38 2135.04L1477.33 2172.54L1477.33 2247.54L1412.38 2285.04L1347.42 2247.54L1347.42 2172.54zM1412.38 2810.04L1477.33 2847.54L1477.33 2922.54L1412.38 2960.04L1347.42 2922.54L1347.42 2847.54zM1347.42 3597.54L1412.38 3635.04L1412.38 3710.04L1347.42 3747.54L1282.47 3710.04L1282.47 3635.04zM1477.33 -2.46L1542.29 35.04L1542.29 110.04L1477.33 147.54L1412.38 110.04L1412.38 35.04zM1542.29 110.04L1607.24 147.54L1607.24 222.54L1542.29 260.04L1477.33 222.54L1477.33 147.54zM1542.29 1010.04L1607.24 1047.54L1607.24 1122.54L1542.29 1160.04L1477.33 1122.54L1477.33 1047.54zM1477.33 2022.54L1542.29 2060.04L1542.29 2135.04L1477.33 2172.54L1412.38 2135.04L1412.38 2060.04z" stroke="rgba(197, 197, 197, 1)" stroke-width="2"></path><path d="M105.8 335.04 a7.5 7.5 0 1 0 15 0 a7.5 7.5 0 1 0 -15 0zM170.76 372.54 a7.5 7.5 0 1 0 15 0 a7.5 7.5 0 1 0 -15 0zM170.76 447.54 a7.5 7.5 0 1 0 15 0 a7.5 7.5 0 1 0 -15 0zM105.8 485.04 a7.5 7.5 0 1 0 15 0 a7.5 7.5 0 1 0 -15 0zM40.85 447.54 a7.5 7.5 0 1 0 15 0 a7.5 7.5 0 1 0 -15 0zM40.85 372.54 a7.5 7.5 0 1 0 15 0 a7.5 7.5 0 1 0 -15 0zM40.85 1572.54 a7.5 7.5 0 1 0 15 0 a7.5 7.5 0 1 0 -15 0zM105.8 1610.04 a7.5 7.5 0 1 0 15 0 a7.5 7.5 0 1 0 -15 0zM105.8 1685.04 a7.5 7.5 0 1 0 15 0 a7.5 7.5 0 1 0 -15 0zM40.85 1722.54 a7.5 7.5 0 1 0 15 0 a7.5 7.5 0 1 0 -15 0zM-24.1 1685.04 a7.5 7.5 0 1 0 15 0 a7.5 7.5 0 1 0 -15 0zM-24.1 1610.04 a7.5 7.5 0 1 0 15 0 a7.5 7.5 0 1 0 -15 0zM40.85 2022.54 a7.5 7.5 0 1 0 15 0 a7.5 7.5 0 1 0 -15 0zM105.8 2060.04 a7.5 7.5 0 1 0 15 0 a7.5 7.5 0 1 0 -15 0zM105.8 2135.04 a7.5 7.5 0 1 0 15 0 a7.5 7.5 0 1 0 -15 0zM40.85 2172.54 a7.5 7.5 0 1 0 15 0 a7.5 7.5 0 1 0 -15 0zM-24.1 2135.04 a7.5 7.5 0 1 0 15 0 a7.5 7.5 0 1 0 -15 0zM-24.1 2060.04 a7.5 7.5 0 1 0 15 0 a7.5 7.5 0 1 0 -15 0zM105.8 2810.04 a7.5 7.5 0 1 0 15 0 a7.5 7.5 0 1 0 -15 0zM170.76 2847.54 a7.5 7.5 0 1 0 15 0 a7.5 7.5 0 1 0 -15 0zM170.76 2922.54 a7.5 7.5 0 1 0 15 0 a7.5 7.5 0 1 0 -15 0zM105.8 2960.04 a7.5 7.5 0 1 0 15 0 a7.5 7.5 0 1 0 -15 0zM40.85 2922.54 a7.5 7.5 0 1 0 15 0 a7.5 7.5 0 1 0 -15 0zM40.85 2847.54 a7.5 7.5 0 1 0 15 0 a7.5 7.5 0 1 0 -15 0zM105.8 3035.04 a7.5 7.5 0 1 0 15 0 a7.5 7.5 0 1 0 -15 0zM40.85 3072.54 a7.5 7.5 0 1 0 15 0 a7.5 7.5 0 1 0 -15 0zM-24.1 3035.04 a7.5 7.5 0 1 0 15 0 a7.5 7.5 0 1 0 -15 0zM-24.1 2960.04 a7.5 7.5 0 1 0 15 0 a7.5 7.5 0 1 0 -15 0zM170.76 3072.54 a7.5 7.5 0 1 0 15 0 a7.5 7.5 0 1 0 -15 0zM170.76 3147.54 a7.5 7.5 0 1 0 15 0 a7.5 7.5 0 1 0 -15 0zM105.8 3185.04 a7.5 7.5 0 1 0 15 0 a7.5 7.5 0 1 0 -15 0zM40.85 3147.54 a7.5 7.5 0 1 0 15 0 a7.5 7.5 0 1 0 -15 0zM170.76 1572.54 a7.5 7.5 0 1 0 15 0 a7.5 7.5 0 1 0 -15 0zM235.71 1610.04 a7.5 7.5 0 1 0 15 0 a7.5 7.5 0 1 0 -15 0zM235.71 1685.04 a7.5 7.5 0 1 0 15 0 a7.5 7.5 0 1 0 -15 0zM170.76 1722.54 a7.5 7.5 0 1 0 15 0 a7.5 7.5 0 1 0 -15 0zM170.76 2472.54 a7.5 7.5 0 1 0 15 0 a7.5 7.5 0 1 0 -15 0zM235.71 2510.04 a7.5 7.5 0 1 0 15 0 a7.5 7.5 0 1 0 -15 0zM235.71 2585.04 a7.5 7.5 0 1 0 15 0 a7.5 7.5 0 1 0 -15 0zM170.76 2622.54 a7.5 7.5 0 1 0 15 0 a7.5 7.5 0 1 0 -15 0zM105.8 2585.04 a7.5 7.5 0 1 0 15 0 a7.5 7.5 0 1 0 -15 0zM105.8 2510.04 a7.5 7.5 0 1 0 15 0 a7.5 7.5 0 1 0 -15 0zM235.71 3035.04 a7.5 7.5 0 1 0 15 0 a7.5 7.5 0 1 0 -15 0zM300.67 3072.54 a7.5 7.5 0 1 0 15 0 a7.5 7.5 0 1 0 -15 0zM300.67 3147.54 a7.5 7.5 0 1 0 15 0 a7.5 7.5 0 1 0 -15 0zM235.71 3185.04 a7.5 7.5 0 1 0 15 0 a7.5 7.5 0 1 0 -15 0zM170.76 3372.54 a7.5 7.5 0 1 0 15 0 a7.5 7.5 0 1 0 -15 0zM235.71 3410.04 a7.5 7.5 0 1 0 15 0 a7.5 7.5 0 1 0 -15 0zM235.71 3485.04 a7.5 7.5 0 1 0 15 0 a7.5 7.5 0 1 0 -15 0zM170.76 3522.54 a7.5 7.5 0 1 0 15 0 a7.5 7.5 0 1 0 -15 0zM105.8 3485.04 a7.5 7.5 0 1 0 15 0 a7.5 7.5 0 1 0 -15 0zM105.8 3410.04 a7.5 7.5 0 1 0 15 0 a7.5 7.5 0 1 0 -15 0zM365.62 3185.04 a7.5 7.5 0 1 0 15 0 a7.5 7.5 0 1 0 -15 0zM365.62 3260.04 a7.5 7.5 0 1 0 15 0 a7.5 7.5 0 1 0 -15 0zM300.67 3297.54 a7.5 7.5 0 1 0 15 0 a7.5 7.5 0 1 0 -15 0zM235.71 3260.04 a7.5 7.5 0 1 0 15 0 a7.5 7.5 0 1 0 -15 0zM430.57 3297.54 a7.5 7.5 0 1 0 15 0 a7.5 7.5 0 1 0 -15 0zM430.57 3372.54 a7.5 7.5 0 1 0 15 0 a7.5 7.5 0 1 0 -15 0zM365.62 3410.04 a7.5 7.5 0 1 0 15 0 a7.5 7.5 0 1 0 -15 0zM300.67 3372.54 a7.5 7.5 0 1 0 15 0 a7.5 7.5 0 1 0 -15 0zM300.67 3597.54 a7.5 7.5 0 1 0 15 0 a7.5 7.5 0 1 0 -15 0zM365.62 3635.04 a7.5 7.5 0 1 0 15 0 a7.5 7.5 0 1 0 -15 0zM365.62 3710.04 a7.5 7.5 0 1 0 15 0 a7.5 7.5 0 1 0 -15 0zM300.67 3747.54 a7.5 7.5 0 1 0 15 0 a7.5 7.5 0 1 0 -15 0zM235.71 3710.04 a7.5 7.5 0 1 0 15 0 a7.5 7.5 0 1 0 -15 0zM235.71 3635.04 a7.5 7.5 0 1 0 15 0 a7.5 7.5 0 1 0 -15 0zM430.57 3747.54 a7.5 7.5 0 1 0 15 0 a7.5 7.5 0 1 0 -15 0zM430.57 3822.54 a7.5 7.5 0 1 0 15 0 a7.5 7.5 0 1 0 -15 0zM365.62 3860.04 a7.5 7.5 0 1 0 15 0 a7.5 7.5 0 1 0 -15 0zM300.67 3822.54 a7.5 7.5 0 1 0 15 0 a7.5 7.5 0 1 0 -15 0zM495.53 560.04 a7.5 7.5 0 1 0 15 0 a7.5 7.5 0 1 0 -15 0zM560.48 597.54 a7.5 7.5 0 1 0 15 0 a7.5 7.5 0 1 0 -15 0zM560.48 672.54 a7.5 7.5 0 1 0 15 0 a7.5 7.5 0 1 0 -15 0zM495.53 710.04 a7.5 7.5 0 1 0 15 0 a7.5 7.5 0 1 0 -15 0zM430.57 672.54 a7.5 7.5 0 1 0 15 0 a7.5 7.5 0 1 0 -15 0zM430.57 597.54 a7.5 7.5 0 1 0 15 0 a7.5 7.5 0 1 0 -15 0zM495.53 1010.04 a7.5 7.5 0 1 0 15 0 a7.5 7.5 0 1 0 -15 0zM560.48 1047.54 a7.5 7.5 0 1 0 15 0 a7.5 7.5 0 1 0 -15 0zM560.48 1122.54 a7.5 7.5 0 1 0 15 0 a7.5 7.5 0 1 0 -15 0zM495.53 1160.04 a7.5 7.5 0 1 0 15 0 a7.5 7.5 0 1 0 -15 0zM430.57 1122.54 a7.5 7.5 0 1 0 15 0 a7.5 7.5 0 1 0 -15 0zM430.57 1047.54 a7.5 7.5 0 1 0 15 0 a7.5 7.5 0 1 0 -15 0zM430.57 1572.54 a7.5 7.5 0 1 0 15 0 a7.5 7.5 0 1 0 -15 0zM495.53 1610.04 a7.5 7.5 0 1 0 15 0 a7.5 7.5 0 1 0 -15 0zM495.53 1685.04 a7.5 7.5 0 1 0 15 0 a7.5 7.5 0 1 0 -15 0zM430.57 1722.54 a7.5 7.5 0 1 0 15 0 a7.5 7.5 0 1 0 -15 0zM365.62 1685.04 a7.5 7.5 0 1 0 15 0 a7.5 7.5 0 1 0 -15 0zM365.62 1610.04 a7.5 7.5 0 1 0 15 0 a7.5 7.5 0 1 0 -15 0zM430.57 2472.54 a7.5 7.5 0 1 0 15 0 a7.5 7.5 0 1 0 -15 0zM495.53 2510.04 a7.5 7.5 0 1 0 15 0 a7.5 7.5 0 1 0 -15 0zM495.53 2585.04 a7.5 7.5 0 1 0 15 0 a7.5 7.5 0 1 0 -15 0zM430.57 2622.54 a7.5 7.5 0 1 0 15 0 a7.5 7.5 0 1 0 -15 0zM365.62 2585.04 a7.5 7.5 0 1 0 15 0 a7.5 7.5 0 1 0 -15 0zM365.62 2510.04 a7.5 7.5 0 1 0 15 0 a7.5 7.5 0 1 0 -15 0zM495.53 2810.04 a7.5 7.5 0 1 0 15 0 a7.5 7.5 0 1 0 -15 0zM560.48 2847.54 a7.5 7.5 0 1 0 15 0 a7.5 7.5 0 1 0 -15 0zM560.48 2922.54 a7.5 7.5 0 1 0 15 0 a7.5 7.5 0 1 0 -15 0zM495.53 2960.04 a7.5 7.5 0 1 0 15 0 a7.5 7.5 0 1 0 -15 0zM430.57 2922.54 a7.5 7.5 0 1 0 15 0 a7.5 7.5 0 1 0 -15 0zM430.57 2847.54 a7.5 7.5 0 1 0 15 0 a7.5 7.5 0 1 0 -15 0zM495.53 3035.04 a7.5 7.5 0 1 0 15 0 a7.5 7.5 0 1 0 -15 0zM430.57 3072.54 a7.5 7.5 0 1 0 15 0 a7.5 7.5 0 1 0 -15 0zM365.62 3035.04 a7.5 7.5 0 1 0 15 0 a7.5 7.5 0 1 0 -15 0zM365.62 2960.04 a7.5 7.5 0 1 0 15 0 a7.5 7.5 0 1 0 -15 0zM495.53 3410.04 a7.5 7.5 0 1 0 15 0 a7.5 7.5 0 1 0 -15 0zM495.53 3485.04 a7.5 7.5 0 1 0 15 0 a7.5 7.5 0 1 0 -15 0zM430.57 3522.54 a7.5 7.5 0 1 0 15 0 a7.5 7.5 0 1 0 -15 0zM365.62 3485.04 a7.5 7.5 0 1 0 15 0 a7.5 7.5 0 1 0 -15 0zM430.57 3597.54 a7.5 7.5 0 1 0 15 0 a7.5 7.5 0 1 0 -15 0zM495.53 3635.04 a7.5 7.5 0 1 0 15 0 a7.5 7.5 0 1 0 -15 0zM495.53 3710.04 a7.5 7.5 0 1 0 15 0 a7.5 7.5 0 1 0 -15 0zM560.48 3747.54 a7.5 7.5 0 1 0 15 0 a7.5 7.5 0 1 0 -15 0zM560.48 3822.54 a7.5 7.5 0 1 0 15 0 a7.5 7.5 0 1 0 -15 0zM495.53 3860.04 a7.5 7.5 0 1 0 15 0 a7.5 7.5 0 1 0 -15 0zM625.43 1235.04 a7.5 7.5 0 1 0 15 0 a7.5 7.5 0 1 0 -15 0zM690.39 1272.54 a7.5 7.5 0 1 0 15 0 a7.5 7.5 0 1 0 -15 0zM690.39 1347.54 a7.5 7.5 0 1 0 15 0 a7.5 7.5 0 1 0 -15 0zM625.43 1385.04 a7.5 7.5 0 1 0 15 0 a7.5 7.5 0 1 0 -15 0zM560.48 1347.54 a7.5 7.5 0 1 0 15 0 a7.5 7.5 0 1 0 -15 0zM560.48 1272.54 a7.5 7.5 0 1 0 15 0 a7.5 7.5 0 1 0 -15 0zM625.43 1685.04 a7.5 7.5 0 1 0 15 0 a7.5 7.5 0 1 0 -15 0zM690.39 1722.54 a7.5 7.5 0 1 0 15 0 a7.5 7.5 0 1 0 -15 0zM690.39 1797.54 a7.5 7.5 0 1 0 15 0 a7.5 7.5 0 1 0 -15 0zM625.43 1835.04 a7.5 7.5 0 1 0 15 0 a7.5 7.5 0 1 0 -15 0zM560.48 1797.54 a7.5 7.5 0 1 0 15 0 a7.5 7.5 0 1 0 -15 0zM560.48 1722.54 a7.5 7.5 0 1 0 15 0 a7.5 7.5 0 1 0 -15 0zM625.43 1910.04 a7.5 7.5 0 1 0 15 0 a7.5 7.5 0 1 0 -15 0zM690.39 1947.54 a7.5 7.5 0 1 0 15 0 a7.5 7.5 0 1 0 -15 0zM690.39 2022.54 a7.5 7.5 0 1 0 15 0 a7.5 7.5 0 1 0 -15 0zM625.43 2060.04 a7.5 7.5 0 1 0 15 0 a7.5 7.5 0 1 0 -15 0zM560.48 2022.54 a7.5 7.5 0 1 0 15 0 a7.5 7.5 0 1 0 -15 0zM560.48 1947.54 a7.5 7.5 0 1 0 15 0 a7.5 7.5 0 1 0 -15 0zM560.48 2247.54 a7.5 7.5 0 1 0 15 0 a7.5 7.5 0 1 0 -15 0zM625.43 2285.04 a7.5 7.5 0 1 0 15 0 a7.5 7.5 0 1 0 -15 0zM625.43 2360.04 a7.5 7.5 0 1 0 15 0 a7.5 7.5 0 1 0 -15 0zM560.48 2397.54 a7.5 7.5 0 1 0 15 0 a7.5 7.5 0 1 0 -15 0zM495.53 2360.04 a7.5 7.5 0 1 0 15 0 a7.5 7.5 0 1 0 -15 0zM495.53 2285.04 a7.5 7.5 0 1 0 15 0 a7.5 7.5 0 1 0 -15 0zM755.34 110.04 a7.5 7.5 0 1 0 15 0 a7.5 7.5 0 1 0 -15 0zM820.3 147.54 a7.5 7.5 0 1 0 15 0 a7.5 7.5 0 1 0 -15 0zM820.3 222.54 a7.5 7.5 0 1 0 15 0 a7.5 7.5 0 1 0 -15 0zM755.34 260.04 a7.5 7.5 0 1 0 15 0 a7.5 7.5 0 1 0 -15 0zM690.39 222.54 a7.5 7.5 0 1 0 15 0 a7.5 7.5 0 1 0 -15 0zM690.39 147.54 a7.5 7.5 0 1 0 15 0 a7.5 7.5 0 1 0 -15 0zM690.39 1572.54 a7.5 7.5 0 1 0 15 0 a7.5 7.5 0 1 0 -15 0zM755.34 1610.04 a7.5 7.5 0 1 0 15 0 a7.5 7.5 0 1 0 -15 0zM755.34 1685.04 a7.5 7.5 0 1 0 15 0 a7.5 7.5 0 1 0 -15 0zM625.43 1610.04 a7.5 7.5 0 1 0 15 0 a7.5 7.5 0 1 0 -15 0zM755.34 2135.04 a7.5 7.5 0 1 0 15 0 a7.5 7.5 0 1 0 -15 0zM820.3 2172.54 a7.5 7.5 0 1 0 15 0 a7.5 7.5 0 1 0 -15 0zM820.3 2247.54 a7.5 7.5 0 1 0 15 0 a7.5 7.5 0 1 0 -15 0zM755.34 2285.04 a7.5 7.5 0 1 0 15 0 a7.5 7.5 0 1 0 -15 0zM690.39 2247.54 a7.5 7.5 0 1 0 15 0 a7.5 7.5 0 1 0 -15 0zM690.39 2172.54 a7.5 7.5 0 1 0 15 0 a7.5 7.5 0 1 0 -15 0zM690.39 2922.54 a7.5 7.5 0 1 0 15 0 a7.5 7.5 0 1 0 -15 0zM755.34 2960.04 a7.5 7.5 0 1 0 15 0 a7.5 7.5 0 1 0 -15 0zM755.34 3035.04 a7.5 7.5 0 1 0 15 0 a7.5 7.5 0 1 0 -15 0zM690.39 3072.54 a7.5 7.5 0 1 0 15 0 a7.5 7.5 0 1 0 -15 0zM625.43 3035.04 a7.5 7.5 0 1 0 15 0 a7.5 7.5 0 1 0 -15 0zM625.43 2960.04 a7.5 7.5 0 1 0 15 0 a7.5 7.5 0 1 0 -15 0zM690.39 3147.54 a7.5 7.5 0 1 0 15 0 a7.5 7.5 0 1 0 -15 0zM755.34 3185.04 a7.5 7.5 0 1 0 15 0 a7.5 7.5 0 1 0 -15 0zM755.34 3260.04 a7.5 7.5 0 1 0 15 0 a7.5 7.5 0 1 0 -15 0zM690.39 3297.54 a7.5 7.5 0 1 0 15 0 a7.5 7.5 0 1 0 -15 0zM625.43 3260.04 a7.5 7.5 0 1 0 15 0 a7.5 7.5 0 1 0 -15 0zM625.43 3185.04 a7.5 7.5 0 1 0 15 0 a7.5 7.5 0 1 0 -15 0zM885.25 785.04 a7.5 7.5 0 1 0 15 0 a7.5 7.5 0 1 0 -15 0zM950.2 822.54 a7.5 7.5 0 1 0 15 0 a7.5 7.5 0 1 0 -15 0zM950.2 897.54 a7.5 7.5 0 1 0 15 0 a7.5 7.5 0 1 0 -15 0zM885.25 935.04 a7.5 7.5 0 1 0 15 0 a7.5 7.5 0 1 0 -15 0zM820.29 897.54 a7.5 7.5 0 1 0 15 0 a7.5 7.5 0 1 0 -15 0zM820.29 822.54 a7.5 7.5 0 1 0 15 0 a7.5 7.5 0 1 0 -15 0zM950.2 -2.46 a7.5 7.5 0 1 0 15 0 a7.5 7.5 0 1 0 -15 0zM1015.16 35.04 a7.5 7.5 0 1 0 15 0 a7.5 7.5 0 1 0 -15 0zM1015.16 110.04 a7.5 7.5 0 1 0 15 0 a7.5 7.5 0 1 0 -15 0zM950.2 147.54 a7.5 7.5 0 1 0 15 0 a7.5 7.5 0 1 0 -15 0zM885.25 110.04 a7.5 7.5 0 1 0 15 0 a7.5 7.5 0 1 0 -15 0zM885.25 35.04 a7.5 7.5 0 1 0 15 0 a7.5 7.5 0 1 0 -15 0zM1080.11 147.54 a7.5 7.5 0 1 0 15 0 a7.5 7.5 0 1 0 -15 0zM1080.11 222.54 a7.5 7.5 0 1 0 15 0 a7.5 7.5 0 1 0 -15 0zM1015.16 260.04 a7.5 7.5 0 1 0 15 0 a7.5 7.5 0 1 0 -15 0zM950.2 222.54 a7.5 7.5 0 1 0 15 0 a7.5 7.5 0 1 0 -15 0zM1015.16 560.04 a7.5 7.5 0 1 0 15 0 a7.5 7.5 0 1 0 -15 0zM1080.11 597.54 a7.5 7.5 0 1 0 15 0 a7.5 7.5 0 1 0 -15 0zM1080.11 672.54 a7.5 7.5 0 1 0 15 0 a7.5 7.5 0 1 0 -15 0zM1015.16 710.04 a7.5 7.5 0 1 0 15 0 a7.5 7.5 0 1 0 -15 0zM950.2 672.54 a7.5 7.5 0 1 0 15 0 a7.5 7.5 0 1 0 -15 0zM950.2 597.54 a7.5 7.5 0 1 0 15 0 a7.5 7.5 0 1 0 -15 0zM950.2 1572.54 a7.5 7.5 0 1 0 15 0 a7.5 7.5 0 1 0 -15 0zM1015.16 1610.04 a7.5 7.5 0 1 0 15 0 a7.5 7.5 0 1 0 -15 0zM1015.16 1685.04 a7.5 7.5 0 1 0 15 0 a7.5 7.5 0 1 0 -15 0zM950.2 1722.54 a7.5 7.5 0 1 0 15 0 a7.5 7.5 0 1 0 -15 0zM885.25 1685.04 a7.5 7.5 0 1 0 15 0 a7.5 7.5 0 1 0 -15 0zM885.25 1610.04 a7.5 7.5 0 1 0 15 0 a7.5 7.5 0 1 0 -15 0zM1015.16 2135.04 a7.5 7.5 0 1 0 15 0 a7.5 7.5 0 1 0 -15 0zM1080.11 2172.54 a7.5 7.5 0 1 0 15 0 a7.5 7.5 0 1 0 -15 0zM1080.11 2247.54 a7.5 7.5 0 1 0 15 0 a7.5 7.5 0 1 0 -15 0zM1015.16 2285.04 a7.5 7.5 0 1 0 15 0 a7.5 7.5 0 1 0 -15 0zM950.2 2247.54 a7.5 7.5 0 1 0 15 0 a7.5 7.5 0 1 0 -15 0zM950.2 2172.54 a7.5 7.5 0 1 0 15 0 a7.5 7.5 0 1 0 -15 0zM950.2 2922.54 a7.5 7.5 0 1 0 15 0 a7.5 7.5 0 1 0 -15 0zM1015.16 2960.04 a7.5 7.5 0 1 0 15 0 a7.5 7.5 0 1 0 -15 0zM1015.16 3035.04 a7.5 7.5 0 1 0 15 0 a7.5 7.5 0 1 0 -15 0zM950.2 3072.54 a7.5 7.5 0 1 0 15 0 a7.5 7.5 0 1 0 -15 0zM885.25 3035.04 a7.5 7.5 0 1 0 15 0 a7.5 7.5 0 1 0 -15 0zM885.25 2960.04 a7.5 7.5 0 1 0 15 0 a7.5 7.5 0 1 0 -15 0zM1145.06 110.04 a7.5 7.5 0 1 0 15 0 a7.5 7.5 0 1 0 -15 0zM1210.02 147.54 a7.5 7.5 0 1 0 15 0 a7.5 7.5 0 1 0 -15 0zM1210.02 222.54 a7.5 7.5 0 1 0 15 0 a7.5 7.5 0 1 0 -15 0zM1145.06 260.04 a7.5 7.5 0 1 0 15 0 a7.5 7.5 0 1 0 -15 0zM1145.06 3260.04 a7.5 7.5 0 1 0 15 0 a7.5 7.5 0 1 0 -15 0zM1210.02 3297.54 a7.5 7.5 0 1 0 15 0 a7.5 7.5 0 1 0 -15 0zM1210.02 3372.54 a7.5 7.5 0 1 0 15 0 a7.5 7.5 0 1 0 -15 0zM1145.06 3410.04 a7.5 7.5 0 1 0 15 0 a7.5 7.5 0 1 0 -15 0zM1080.11 3372.54 a7.5 7.5 0 1 0 15 0 a7.5 7.5 0 1 0 -15 0zM1080.11 3297.54 a7.5 7.5 0 1 0 15 0 a7.5 7.5 0 1 0 -15 0zM1145.06 3485.04 a7.5 7.5 0 1 0 15 0 a7.5 7.5 0 1 0 -15 0zM1080.11 3522.54 a7.5 7.5 0 1 0 15 0 a7.5 7.5 0 1 0 -15 0zM1015.16 3485.04 a7.5 7.5 0 1 0 15 0 a7.5 7.5 0 1 0 -15 0zM1015.16 3410.04 a7.5 7.5 0 1 0 15 0 a7.5 7.5 0 1 0 -15 0zM1210.02 -2.46 a7.5 7.5 0 1 0 15 0 a7.5 7.5 0 1 0 -15 0zM1274.97 35.04 a7.5 7.5 0 1 0 15 0 a7.5 7.5 0 1 0 -15 0zM1274.97 110.04 a7.5 7.5 0 1 0 15 0 a7.5 7.5 0 1 0 -15 0zM1145.06 35.04 a7.5 7.5 0 1 0 15 0 a7.5 7.5 0 1 0 -15 0zM1210.02 1797.54 a7.5 7.5 0 1 0 15 0 a7.5 7.5 0 1 0 -15 0zM1274.97 1835.04 a7.5 7.5 0 1 0 15 0 a7.5 7.5 0 1 0 -15 0zM1274.97 1910.04 a7.5 7.5 0 1 0 15 0 a7.5 7.5 0 1 0 -15 0zM1210.02 1947.54 a7.5 7.5 0 1 0 15 0 a7.5 7.5 0 1 0 -15 0zM1145.06 1910.04 a7.5 7.5 0 1 0 15 0 a7.5 7.5 0 1 0 -15 0zM1145.06 1835.04 a7.5 7.5 0 1 0 15 0 a7.5 7.5 0 1 0 -15 0zM1339.92 1947.54 a7.5 7.5 0 1 0 15 0 a7.5 7.5 0 1 0 -15 0zM1339.92 2022.54 a7.5 7.5 0 1 0 15 0 a7.5 7.5 0 1 0 -15 0zM1274.97 2060.04 a7.5 7.5 0 1 0 15 0 a7.5 7.5 0 1 0 -15 0zM1210.02 2022.54 a7.5 7.5 0 1 0 15 0 a7.5 7.5 0 1 0 -15 0zM1274.97 2135.04 a7.5 7.5 0 1 0 15 0 a7.5 7.5 0 1 0 -15 0zM1210.02 2172.54 a7.5 7.5 0 1 0 15 0 a7.5 7.5 0 1 0 -15 0zM1145.06 2135.04 a7.5 7.5 0 1 0 15 0 a7.5 7.5 0 1 0 -15 0zM1145.06 2060.04 a7.5 7.5 0 1 0 15 0 a7.5 7.5 0 1 0 -15 0zM1210.02 2697.54 a7.5 7.5 0 1 0 15 0 a7.5 7.5 0 1 0 -15 0zM1274.97 2735.04 a7.5 7.5 0 1 0 15 0 a7.5 7.5 0 1 0 -15 0zM1274.97 2810.04 a7.5 7.5 0 1 0 15 0 a7.5 7.5 0 1 0 -15 0zM1210.02 2847.54 a7.5 7.5 0 1 0 15 0 a7.5 7.5 0 1 0 -15 0zM1145.06 2810.04 a7.5 7.5 0 1 0 15 0 a7.5 7.5 0 1 0 -15 0zM1145.06 2735.04 a7.5 7.5 0 1 0 15 0 a7.5 7.5 0 1 0 -15 0zM1404.88 110.04 a7.5 7.5 0 1 0 15 0 a7.5 7.5 0 1 0 -15 0zM1469.83 147.54 a7.5 7.5 0 1 0 15 0 a7.5 7.5 0 1 0 -15 0zM1469.83 222.54 a7.5 7.5 0 1 0 15 0 a7.5 7.5 0 1 0 -15 0zM1404.88 260.04 a7.5 7.5 0 1 0 15 0 a7.5 7.5 0 1 0 -15 0zM1339.92 222.54 a7.5 7.5 0 1 0 15 0 a7.5 7.5 0 1 0 -15 0zM1339.92 147.54 a7.5 7.5 0 1 0 15 0 a7.5 7.5 0 1 0 -15 0zM1339.92 1797.54 a7.5 7.5 0 1 0 15 0 a7.5 7.5 0 1 0 -15 0zM1404.88 1835.04 a7.5 7.5 0 1 0 15 0 a7.5 7.5 0 1 0 -15 0zM1404.88 1910.04 a7.5 7.5 0 1 0 15 0 a7.5 7.5 0 1 0 -15 0zM1404.88 2135.04 a7.5 7.5 0 1 0 15 0 a7.5 7.5 0 1 0 -15 0zM1469.83 2172.54 a7.5 7.5 0 1 0 15 0 a7.5 7.5 0 1 0 -15 0zM1469.83 2247.54 a7.5 7.5 0 1 0 15 0 a7.5 7.5 0 1 0 -15 0zM1404.88 2285.04 a7.5 7.5 0 1 0 15 0 a7.5 7.5 0 1 0 -15 0zM1339.92 2247.54 a7.5 7.5 0 1 0 15 0 a7.5 7.5 0 1 0 -15 0zM1339.92 2172.54 a7.5 7.5 0 1 0 15 0 a7.5 7.5 0 1 0 -15 0zM1404.88 2810.04 a7.5 7.5 0 1 0 15 0 a7.5 7.5 0 1 0 -15 0zM1469.83 2847.54 a7.5 7.5 0 1 0 15 0 a7.5 7.5 0 1 0 -15 0zM1469.83 2922.54 a7.5 7.5 0 1 0 15 0 a7.5 7.5 0 1 0 -15 0zM1404.88 2960.04 a7.5 7.5 0 1 0 15 0 a7.5 7.5 0 1 0 -15 0zM1339.92 2922.54 a7.5 7.5 0 1 0 15 0 a7.5 7.5 0 1 0 -15 0zM1339.92 2847.54 a7.5 7.5 0 1 0 15 0 a7.5 7.5 0 1 0 -15 0zM1339.92 3597.54 a7.5 7.5 0 1 0 15 0 a7.5 7.5 0 1 0 -15 0zM1404.88 3635.04 a7.5 7.5 0 1 0 15 0 a7.5 7.5 0 1 0 -15 0zM1404.88 3710.04 a7.5 7.5 0 1 0 15 0 a7.5 7.5 0 1 0 -15 0zM1339.92 3747.54 a7.5 7.5 0 1 0 15 0 a7.5 7.5 0 1 0 -15 0zM1274.97 3710.04 a7.5 7.5 0 1 0 15 0 a7.5 7.5 0 1 0 -15 0zM1274.97 3635.04 a7.5 7.5 0 1 0 15 0 a7.5 7.5 0 1 0 -15 0zM1469.83 -2.46 a7.5 7.5 0 1 0 15 0 a7.5 7.5 0 1 0 -15 0zM1534.79 35.04 a7.5 7.5 0 1 0 15 0 a7.5 7.5 0 1 0 -15 0zM1534.79 110.04 a7.5 7.5 0 1 0 15 0 a7.5 7.5 0 1 0 -15 0zM1404.88 35.04 a7.5 7.5 0 1 0 15 0 a7.5 7.5 0 1 0 -15 0zM1599.74 147.54 a7.5 7.5 0 1 0 15 0 a7.5 7.5 0 1 0 -15 0zM1599.74 222.54 a7.5 7.5 0 1 0 15 0 a7.5 7.5 0 1 0 -15 0zM1534.79 260.04 a7.5 7.5 0 1 0 15 0 a7.5 7.5 0 1 0 -15 0zM1534.79 1010.04 a7.5 7.5 0 1 0 15 0 a7.5 7.5 0 1 0 -15 0zM1599.74 1047.54 a7.5 7.5 0 1 0 15 0 a7.5 7.5 0 1 0 -15 0zM1599.74 1122.54 a7.5 7.5 0 1 0 15 0 a7.5 7.5 0 1 0 -15 0zM1534.79 1160.04 a7.5 7.5 0 1 0 15 0 a7.5 7.5 0 1 0 -15 0zM1469.83 1122.54 a7.5 7.5 0 1 0 15 0 a7.5 7.5 0 1 0 -15 0zM1469.83 1047.54 a7.5 7.5 0 1 0 15 0 a7.5 7.5 0 1 0 -15 0zM1469.83 2022.54 a7.5 7.5 0 1 0 15 0 a7.5 7.5 0 1 0 -15 0zM1534.79 2060.04 a7.5 7.5 0 1 0 15 0 a7.5 7.5 0 1 0 -15 0zM1534.79 2135.04 a7.5 7.5 0 1 0 15 0 a7.5 7.5 0 1 0 -15 0zM1404.88 2060.04 a7.5 7.5 0 1 0 15 0 a7.5 7.5 0 1 0 -15 0z" fill="rgba(197, 197, 197, 1)"></path><path d="M28.39 273.38L71.69 298.38L71.69 348.38L28.39 373.38L-14.91 348.38L-14.91 298.38zM71.69 348.38L115 373.38L115 423.38L71.69 448.38L28.39 423.38L28.39 373.38zM71.69 1098.38L115 1123.38L115 1173.38L71.69 1198.38L28.39 1173.38L28.39 1123.38zM71.69 1248.38L115 1273.38L115 1323.38L71.69 1348.38L28.39 1323.38L28.39 1273.38zM71.69 1398.38L115 1423.38L115 1473.38L71.69 1498.38L28.39 1473.38L28.39 1423.38zM71.69 1548.38L115 1573.38L115 1623.38L71.69 1648.38L28.39 1623.38L28.39 1573.38zM28.39 1773.38L71.69 1798.38L71.69 1848.38L28.39 1873.38L-14.91 1848.38L-14.91 1798.38zM28.39 1923.38L71.69 1948.38L71.69 1998.38L28.39 2023.38L-14.91 1998.38L-14.91 1948.38zM71.69 1998.38L115 2023.38L115 2073.38L71.69 2098.38L28.39 2073.38L28.39 2023.38zM28.39 2073.38L71.69 2098.38L71.69 2148.38L28.39 2173.38L-14.91 2148.38L-14.91 2098.38zM71.69 2298.38L115 2323.38L115 2373.38L71.69 2398.38L28.39 2373.38L28.39 2323.38zM71.69 2598.38L115 2623.38L115 2673.38L71.69 2698.38L28.39 2673.38L28.39 2623.38zM28.39 2673.38L71.69 2698.38L71.69 2748.38L28.39 2773.38L-14.91 2748.38L-14.91 2698.38zM28.39 2823.38L71.69 2848.38L71.69 2898.38L28.39 2923.38L-14.91 2898.38L-14.91 2848.38zM71.69 3348.38L115 3373.38L115 3423.38L71.69 3448.38L28.39 3423.38L28.39 3373.38zM28.39 3423.38L71.69 3448.38L71.69 3498.38L28.39 3523.38L-14.91 3498.38L-14.91 3448.38zM71.69 3498.38L115 3523.38L115 3573.38L71.69 3598.38L28.39 3573.38L28.39 3523.38zM28.39 3573.38L71.69 3598.38L71.69 3648.38L28.39 3673.38L-14.91 3648.38L-14.91 3598.38zM158.3 648.38L201.6 673.38L201.6 723.38L158.3 748.38L115 723.38L115 673.38zM115 723.38L158.3 748.38L158.3 798.38L115 823.38L71.69 798.38L71.69 748.38zM158.3 1248.38L201.6 1273.38L201.6 1323.38L158.3 1348.38L115 1323.38L115 1273.38zM115 1473.38L158.3 1498.38L158.3 1548.38L115 1573.38L71.69 1548.38L71.69 1498.38zM115 1623.38L158.3 1648.38L158.3 1698.38L115 1723.38L71.69 1698.38L71.69 1648.38zM158.3 1998.38L201.6 2023.38L201.6 2073.38L158.3 2098.38L115 2073.38L115 2023.38zM115 2073.38L158.3 2098.38L158.3 2148.38L115 2173.38L71.69 2148.38L71.69 2098.38zM158.3 2148.38L201.6 2173.38L201.6 2223.38L158.3 2248.38L115 2223.38L115 2173.38zM158.3 2448.38L201.6 2473.38L201.6 2523.38L158.3 2548.38L115 2523.38L115 2473.38zM115 2523.38L158.3 2548.38L158.3 2598.38L115 2623.38L71.69 2598.38L71.69 2548.38zM158.3 2898.38L201.6 2923.38L201.6 2973.38L158.3 2998.38L115 2973.38L115 2923.38zM115 2973.38L158.3 2998.38L158.3 3048.38L115 3073.38L71.69 3048.38L71.69 2998.38zM115 3273.38L158.3 3298.38L158.3 3348.38L115 3373.38L71.69 3348.38L71.69 3298.38zM115 3573.38L158.3 3598.38L158.3 3648.38L115 3673.38L71.69 3648.38L71.69 3598.38zM244.9 498.38L288.2 523.38L288.2 573.38L244.9 598.38L201.6 573.38L201.6 523.38zM201.6 573.38L244.9 598.38L244.9 648.38L201.6 673.38L158.3 648.38L158.3 598.38zM244.9 948.38L288.2 973.38L288.2 1023.38L244.9 1048.38L201.6 1023.38L201.6 973.38zM201.6 1173.38L244.9 1198.38L244.9 1248.38L201.6 1273.38L158.3 1248.38L158.3 1198.38zM244.9 1248.38L288.2 1273.38L288.2 1323.38L244.9 1348.38L201.6 1323.38L201.6 1273.38zM201.6 1773.38L244.9 1798.38L244.9 1848.38L201.6 1873.38L158.3 1848.38L158.3 1798.38zM201.6 2073.38L244.9 2098.38L244.9 2148.38L201.6 2173.38L158.3 2148.38L158.3 2098.38zM244.9 2148.38L288.2 2173.38L288.2 2223.38L244.9 2248.38L201.6 2223.38L201.6 2173.38zM244.9 2298.38L288.2 2323.38L288.2 2373.38L244.9 2398.38L201.6 2373.38L201.6 2323.38zM201.6 2523.38L244.9 2548.38L244.9 2598.38L201.6 2623.38L158.3 2598.38L158.3 2548.38zM201.6 2823.38L244.9 2848.38L244.9 2898.38L201.6 2923.38L158.3 2898.38L158.3 2848.38zM244.9 2898.38L288.2 2923.38L288.2 2973.38L244.9 2998.38L201.6 2973.38L201.6 2923.38zM201.6 2973.38L244.9 2998.38L244.9 3048.38L201.6 3073.38L158.3 3048.38L158.3 2998.38zM244.9 3048.38L288.2 3073.38L288.2 3123.38L244.9 3148.38L201.6 3123.38L201.6 3073.38zM201.6 3123.38L244.9 3148.38L244.9 3198.38L201.6 3223.38L158.3 3198.38L158.3 3148.38zM288.2 123.38L331.51 148.38L331.51 198.38L288.2 223.38L244.9 198.38L244.9 148.38zM288.2 273.38L331.51 298.38L331.51 348.38L288.2 373.38L244.9 348.38L244.9 298.38zM288.2 423.38L331.51 448.38L331.51 498.38L288.2 523.38L244.9 498.38L244.9 448.38zM331.51 1098.38L374.81 1123.38L374.81 1173.38L331.51 1198.38L288.2 1173.38L288.2 1123.38zM331.51 1698.38L374.81 1723.38L374.81 1773.38L331.51 1798.38L288.2 1773.38L288.2 1723.38zM288.2 1773.38L331.51 1798.38L331.51 1848.38L288.2 1873.38L244.9 1848.38L244.9 1798.38zM331.51 2298.38L374.81 2323.38L374.81 2373.38L331.51 2398.38L288.2 2373.38L288.2 2323.38zM288.2 2373.38L331.51 2398.38L331.51 2448.38L288.2 2473.38L244.9 2448.38L244.9 2398.38zM288.2 2673.38L331.51 2698.38L331.51 2748.38L288.2 2773.38L244.9 2748.38L244.9 2698.38zM331.51 2748.38L374.81 2773.38L374.81 2823.38L331.51 2848.38L288.2 2823.38L288.2 2773.38zM331.51 3048.38L374.81 3073.38L374.81 3123.38L331.51 3148.38L288.2 3123.38L288.2 3073.38zM331.51 3198.38L374.81 3223.38L374.81 3273.38L331.51 3298.38L288.2 3273.38L288.2 3223.38zM331.51 3498.38L374.81 3523.38L374.81 3573.38L331.51 3598.38L288.2 3573.38L288.2 3523.38zM331.51 3648.38L374.81 3673.38L374.81 3723.38L331.51 3748.38L288.2 3723.38L288.2 3673.38zM288.2 3723.38L331.51 3748.38L331.51 3798.38L288.2 3823.38L244.9 3798.38L244.9 3748.38zM374.81 -26.62L418.11 -1.62L418.11 48.38L374.81 73.38L331.51 48.38L331.51 -1.62zM418.11 348.38L461.42 373.38L461.42 423.38L418.11 448.38L374.81 423.38L374.81 373.38zM374.81 423.38L418.11 448.38L418.11 498.38L374.81 523.38L331.51 498.38L331.51 448.38zM374.81 573.38L418.11 598.38L418.11 648.38L374.81 673.38L331.51 648.38L331.51 598.38zM374.81 1023.38L418.11 1048.38L418.11 1098.38L374.81 1123.38L331.51 1098.38L331.51 1048.38zM418.11 1098.38L461.42 1123.38L461.42 1173.38L418.11 1198.38L374.81 1173.38L374.81 1123.38zM374.81 1323.38L418.11 1348.38L418.11 1398.38L374.81 1423.38L331.51 1398.38L331.51 1348.38zM418.11 1398.38L461.42 1423.38L461.42 1473.38L418.11 1498.38L374.81 1473.38L374.81 1423.38zM374.81 1623.38L418.11 1648.38L418.11 1698.38L374.81 1723.38L331.51 1698.38L331.51 1648.38zM418.11 1848.38L461.42 1873.38L461.42 1923.38L418.11 1948.38L374.81 1923.38L374.81 1873.38zM418.11 1998.38L461.42 2023.38L461.42 2073.38L418.11 2098.38L374.81 2073.38L374.81 2023.38zM374.81 2073.38L418.11 2098.38L418.11 2148.38L374.81 2173.38L331.51 2148.38L331.51 2098.38zM374.81 2223.38L418.11 2248.38L418.11 2298.38L374.81 2323.38L331.51 2298.38L331.51 2248.38zM418.11 2298.38L461.42 2323.38L461.42 2373.38L418.11 2398.38L374.81 2373.38L374.81 2323.38zM374.81 2373.38L418.11 2398.38L418.11 2448.38L374.81 2473.38L331.51 2448.38L331.51 2398.38zM504.72 48.38L548.02 73.38L548.02 123.38L504.72 148.38L461.42 123.38L461.42 73.38zM504.72 198.38L548.02 223.38L548.02 273.38L504.72 298.38L461.42 273.38L461.42 223.38zM504.72 348.38L548.02 373.38L548.02 423.38L504.72 448.38L461.42 423.38L461.42 373.38zM461.42 573.38L504.72 598.38L504.72 648.38L461.42 673.38L418.11 648.38L418.11 598.38zM461.42 723.38L504.72 748.38L504.72 798.38L461.42 823.38L418.11 798.38L418.11 748.38zM504.72 948.38L548.02 973.38L548.02 1023.38L504.72 1048.38L461.42 1023.38L461.42 973.38zM504.72 1698.38L548.02 1723.38L548.02 1773.38L504.72 1798.38L461.42 1773.38L461.42 1723.38zM461.42 2373.38L504.72 2398.38L504.72 2448.38L461.42 2473.38L418.11 2448.38L418.11 2398.38zM504.72 2448.38L548.02 2473.38L548.02 2523.38L504.72 2548.38L461.42 2523.38L461.42 2473.38zM504.72 2598.38L548.02 2623.38L548.02 2673.38L504.72 2698.38L461.42 2673.38L461.42 2623.38zM504.72 2748.38L548.02 2773.38L548.02 2823.38L504.72 2848.38L461.42 2823.38L461.42 2773.38zM461.42 3723.38L504.72 3748.38L504.72 3798.38L461.42 3823.38L418.11 3798.38L418.11 3748.38zM548.02 -26.62L591.32 -1.62L591.32 48.38L548.02 73.38L504.72 48.38L504.72 -1.62zM591.32 48.38L634.63 73.38L634.63 123.38L591.32 148.38L548.02 123.38L548.02 73.38zM548.02 123.38L591.32 148.38L591.32 198.38L548.02 223.38L504.72 198.38L504.72 148.38zM591.32 198.38L634.63 223.38L634.63 273.38L591.32 298.38L548.02 273.38L548.02 223.38zM548.02 273.38L591.32 298.38L591.32 348.38L548.02 373.38L504.72 348.38L504.72 298.38zM591.32 498.38L634.63 523.38L634.63 573.38L591.32 598.38L548.02 573.38L548.02 523.38zM548.02 573.38L591.32 598.38L591.32 648.38L548.02 673.38L504.72 648.38L504.72 598.38zM548.02 873.38L591.32 898.38L591.32 948.38L548.02 973.38L504.72 948.38L504.72 898.38zM591.32 948.38L634.63 973.38L634.63 1023.38L591.32 1048.38L548.02 1023.38L548.02 973.38zM548.02 1173.38L591.32 1198.38L591.32 1248.38L548.02 1273.38L504.72 1248.38L504.72 1198.38zM591.32 1248.38L634.63 1273.38L634.63 1323.38L591.32 1348.38L548.02 1323.38L548.02 1273.38zM548.02 1323.38L591.32 1348.38L591.32 1398.38L548.02 1423.38L504.72 1398.38L504.72 1348.38zM591.32 1398.38L634.63 1423.38L634.63 1473.38L591.32 1498.38L548.02 1473.38L548.02 1423.38zM548.02 1473.38L591.32 1498.38L591.32 1548.38L548.02 1573.38L504.72 1548.38L504.72 1498.38zM591.32 1548.38L634.63 1573.38L634.63 1623.38L591.32 1648.38L548.02 1623.38L548.02 1573.38zM548.02 1773.38L591.32 1798.38L591.32 1848.38L548.02 1873.38L504.72 1848.38L504.72 1798.38zM591.32 1998.38L634.63 2023.38L634.63 2073.38L591.32 2098.38L548.02 2073.38L548.02 2023.38zM548.02 2223.38L591.32 2248.38L591.32 2298.38L548.02 2323.38L504.72 2298.38L504.72 2248.38zM548.02 2373.38L591.32 2398.38L591.32 2448.38L548.02 2473.38L504.72 2448.38L504.72 2398.38zM591.32 2448.38L634.63 2473.38L634.63 2523.38L591.32 2548.38L548.02 2523.38L548.02 2473.38zM591.32 2598.38L634.63 2623.38L634.63 2673.38L591.32 2698.38L548.02 2673.38L548.02 2623.38zM591.32 2748.38L634.63 2773.38L634.63 2823.38L591.32 2848.38L548.02 2823.38L548.02 2773.38zM591.32 2898.38L634.63 2923.38L634.63 2973.38L591.32 2998.38L548.02 2973.38L548.02 2923.38zM591.32 3498.38L634.63 3523.38L634.63 3573.38L591.32 3598.38L548.02 3573.38L548.02 3523.38zM634.63 -26.62L677.93 -1.62L677.93 48.38L634.63 73.38L591.32 48.38L591.32 -1.62zM677.93 48.38L721.23 73.38L721.23 123.38L677.93 148.38L634.63 123.38L634.63 73.38zM677.93 348.38L721.23 373.38L721.23 423.38L677.93 448.38L634.63 423.38L634.63 373.38zM677.93 498.38L721.23 523.38L721.23 573.38L677.93 598.38L634.63 573.38L634.63 523.38zM634.63 873.38L677.93 898.38L677.93 948.38L634.63 973.38L591.32 948.38L591.32 898.38zM677.93 1248.38L721.23 1273.38L721.23 1323.38L677.93 1348.38L634.63 1323.38L634.63 1273.38zM634.63 1323.38L677.93 1348.38L677.93 1398.38L634.63 1423.38L591.32 1398.38L591.32 1348.38zM677.93 1548.38L721.23 1573.38L721.23 1623.38L677.93 1648.38L634.63 1623.38L634.63 1573.38zM677.93 1698.38L721.23 1723.38L721.23 1773.38L677.93 1798.38L634.63 1773.38L634.63 1723.38zM634.63 1773.38L677.93 1798.38L677.93 1848.38L634.63 1873.38L591.32 1848.38L591.32 1798.38zM677.93 1998.38L721.23 2023.38L721.23 2073.38L677.93 2098.38L634.63 2073.38L634.63 2023.38zM634.63 2073.38L677.93 2098.38L677.93 2148.38L634.63 2173.38L591.32 2148.38L591.32 2098.38zM677.93 2148.38L721.23 2173.38L721.23 2223.38L677.93 2248.38L634.63 2223.38L634.63 2173.38zM677.93 2298.38L721.23 2323.38L721.23 2373.38L677.93 2398.38L634.63 2373.38L634.63 2323.38zM634.63 2373.38L677.93 2398.38L677.93 2448.38L634.63 2473.38L591.32 2448.38L591.32 2398.38zM634.63 2973.38L677.93 2998.38L677.93 3048.38L634.63 3073.38L591.32 3048.38L591.32 2998.38zM634.63 3123.38L677.93 3148.38L677.93 3198.38L634.63 3223.38L591.32 3198.38L591.32 3148.38zM677.93 3198.38L721.23 3223.38L721.23 3273.38L677.93 3298.38L634.63 3273.38L634.63 3223.38zM677.93 3348.38L721.23 3373.38L721.23 3423.38L677.93 3448.38L634.63 3423.38L634.63 3373.38zM721.23 123.38L764.53 148.38L764.53 198.38L721.23 223.38L677.93 198.38L677.93 148.38zM764.53 348.38L807.84 373.38L807.84 423.38L764.53 448.38L721.23 423.38L721.23 373.38zM721.23 723.38L764.53 748.38L764.53 798.38L721.23 823.38L677.93 798.38L677.93 748.38zM764.53 948.38L807.84 973.38L807.84 1023.38L764.53 1048.38L721.23 1023.38L721.23 973.38zM764.53 1548.38L807.84 1573.38L807.84 1623.38L764.53 1648.38L721.23 1623.38L721.23 1573.38zM764.53 1848.38L807.84 1873.38L807.84 1923.38L764.53 1948.38L721.23 1923.38L721.23 1873.38zM721.23 1923.38L764.53 1948.38L764.53 1998.38L721.23 2023.38L677.93 1998.38L677.93 1948.38zM721.23 2073.38L764.53 2098.38L764.53 2148.38L721.23 2173.38L677.93 2148.38L677.93 2098.38zM721.23 2223.38L764.53 2248.38L764.53 2298.38L721.23 2323.38L677.93 2298.38L677.93 2248.38zM764.53 2298.38L807.84 2323.38L807.84 2373.38L764.53 2398.38L721.23 2373.38L721.23 2323.38zM721.23 2523.38L764.53 2548.38L764.53 2598.38L721.23 2623.38L677.93 2598.38L677.93 2548.38zM764.53 2598.38L807.84 2623.38L807.84 2673.38L764.53 2698.38L721.23 2673.38L721.23 2623.38zM721.23 2673.38L764.53 2698.38L764.53 2748.38L721.23 2773.38L677.93 2748.38L677.93 2698.38zM764.53 3048.38L807.84 3073.38L807.84 3123.38L764.53 3148.38L721.23 3123.38L721.23 3073.38zM721.23 3123.38L764.53 3148.38L764.53 3198.38L721.23 3223.38L677.93 3198.38L677.93 3148.38zM721.23 3273.38L764.53 3298.38L764.53 3348.38L721.23 3373.38L677.93 3348.38L677.93 3298.38zM721.23 3573.38L764.53 3598.38L764.53 3648.38L721.23 3673.38L677.93 3648.38L677.93 3598.38zM764.53 3648.38L807.84 3673.38L807.84 3723.38L764.53 3748.38L721.23 3723.38L721.23 3673.38zM807.84 -26.62L851.14 -1.62L851.14 48.38L807.84 73.38L764.53 48.38L764.53 -1.62zM851.14 48.38L894.44 73.38L894.44 123.38L851.14 148.38L807.84 123.38L807.84 73.38zM851.14 348.38L894.44 373.38L894.44 423.38L851.14 448.38L807.84 423.38L807.84 373.38zM807.84 573.38L851.14 598.38L851.14 648.38L807.84 673.38L764.53 648.38L764.53 598.38zM851.14 648.38L894.44 673.38L894.44 723.38L851.14 748.38L807.84 723.38L807.84 673.38zM851.14 798.38L894.44 823.38L894.44 873.38L851.14 898.38L807.84 873.38L807.84 823.38zM807.84 1023.38L851.14 1048.38L851.14 1098.38L807.84 1123.38L764.53 1098.38L764.53 1048.38zM807.84 1173.38L851.14 1198.38L851.14 1248.38L807.84 1273.38L764.53 1248.38L764.53 1198.38zM851.14 1248.38L894.44 1273.38L894.44 1323.38L851.14 1348.38L807.84 1323.38L807.84 1273.38zM851.14 1398.38L894.44 1423.38L894.44 1473.38L851.14 1498.38L807.84 1473.38L807.84 1423.38zM851.14 1548.38L894.44 1573.38L894.44 1623.38L851.14 1648.38L807.84 1623.38L807.84 1573.38zM807.84 1623.38L851.14 1648.38L851.14 1698.38L807.84 1723.38L764.53 1698.38L764.53 1648.38zM807.84 1773.38L851.14 1798.38L851.14 1848.38L807.84 1873.38L764.53 1848.38L764.53 1798.38zM807.84 1923.38L851.14 1948.38L851.14 1998.38L807.84 2023.38L764.53 1998.38L764.53 1948.38zM851.14 1998.38L894.44 2023.38L894.44 2073.38L851.14 2098.38L807.84 2073.38L807.84 2023.38zM851.14 2148.38L894.44 2173.38L894.44 2223.38L851.14 2248.38L807.84 2223.38L807.84 2173.38zM807.84 2223.38L851.14 2248.38L851.14 2298.38L807.84 2323.38L764.53 2298.38L764.53 2248.38zM807.84 2523.38L851.14 2548.38L851.14 2598.38L807.84 2623.38L764.53 2598.38L764.53 2548.38zM851.14 2598.38L894.44 2623.38L894.44 2673.38L851.14 2698.38L807.84 2673.38L807.84 2623.38zM851.14 2748.38L894.44 2773.38L894.44 2823.38L851.14 2848.38L807.84 2823.38L807.84 2773.38zM807.84 2973.38L851.14 2998.38L851.14 3048.38L807.84 3073.38L764.53 3048.38L764.53 2998.38zM851.14 3048.38L894.44 3073.38L894.44 3123.38L851.14 3148.38L807.84 3123.38L807.84 3073.38zM807.84 3123.38L851.14 3148.38L851.14 3198.38L807.84 3223.38L764.53 3198.38L764.53 3148.38zM807.84 3273.38L851.14 3298.38L851.14 3348.38L807.84 3373.38L764.53 3348.38L764.53 3298.38zM894.44 -26.62L937.74 -1.62L937.74 48.38L894.44 73.38L851.14 48.38L851.14 -1.62zM937.74 198.38L981.05 223.38L981.05 273.38L937.74 298.38L894.44 273.38L894.44 223.38zM894.44 573.38L937.74 598.38L937.74 648.38L894.44 673.38L851.14 648.38L851.14 598.38zM937.74 648.38L981.05 673.38L981.05 723.38L937.74 748.38L894.44 723.38L894.44 673.38zM894.44 723.38L937.74 748.38L937.74 798.38L894.44 823.38L851.14 798.38L851.14 748.38zM894.44 1173.38L937.74 1198.38L937.74 1248.38L894.44 1273.38L851.14 1248.38L851.14 1198.38zM937.74 1548.38L981.05 1573.38L981.05 1623.38L937.74 1648.38L894.44 1623.38L894.44 1573.38zM894.44 1773.38L937.74 1798.38L937.74 1848.38L894.44 1873.38L851.14 1848.38L851.14 1798.38zM894.44 2223.38L937.74 2248.38L937.74 2298.38L894.44 2323.38L851.14 2298.38L851.14 2248.38zM937.74 2298.38L981.05 2323.38L981.05 2373.38L937.74 2398.38L894.44 2373.38L894.44 2323.38zM894.44 2373.38L937.74 2398.38L937.74 2448.38L894.44 2473.38L851.14 2448.38L851.14 2398.38zM894.44 2523.38L937.74 2548.38L937.74 2598.38L894.44 2623.38L851.14 2598.38L851.14 2548.38zM937.74 2898.38L981.05 2923.38L981.05 2973.38L937.74 2998.38L894.44 2973.38L894.44 2923.38zM937.74 3348.38L981.05 3373.38L981.05 3423.38L937.74 3448.38L894.44 3423.38L894.44 3373.38zM894.44 3423.38L937.74 3448.38L937.74 3498.38L894.44 3523.38L851.14 3498.38L851.14 3448.38zM1024.35 48.38L1067.65 73.38L1067.65 123.38L1024.35 148.38L981.05 123.38L981.05 73.38zM1024.35 348.38L1067.65 373.38L1067.65 423.38L1024.35 448.38L981.05 423.38L981.05 373.38zM981.05 423.38L1024.35 448.38L1024.35 498.38L981.05 523.38L937.74 498.38L937.74 448.38zM1024.35 498.38L1067.65 523.38L1067.65 573.38L1024.35 598.38L981.05 573.38L981.05 523.38zM981.05 723.38L1024.35 748.38L1024.35 798.38L981.05 823.38L937.74 798.38L937.74 748.38zM981.05 873.38L1024.35 898.38L1024.35 948.38L981.05 973.38L937.74 948.38L937.74 898.38zM981.05 1023.38L1024.35 1048.38L1024.35 1098.38L981.05 1123.38L937.74 1098.38L937.74 1048.38zM981.05 1173.38L1024.35 1198.38L1024.35 1248.38L981.05 1273.38L937.74 1248.38L937.74 1198.38zM1024.35 1548.38L1067.65 1573.38L1067.65 1623.38L1024.35 1648.38L981.05 1623.38L981.05 1573.38zM981.05 1623.38L1024.35 1648.38L1024.35 1698.38L981.05 1723.38L937.74 1698.38L937.74 1648.38zM981.05 1923.38L1024.35 1948.38L1024.35 1998.38L981.05 2023.38L937.74 1998.38L937.74 1948.38zM1024.35 1998.38L1067.65 2023.38L1067.65 2073.38L1024.35 2098.38L981.05 2073.38L981.05 2023.38zM981.05 2073.38L1024.35 2098.38L1024.35 2148.38L981.05 2173.38L937.74 2148.38L937.74 2098.38zM1024.35 2148.38L1067.65 2173.38L1067.65 2223.38L1024.35 2248.38L981.05 2223.38L981.05 2173.38zM981.05 2373.38L1024.35 2398.38L1024.35 2448.38L981.05 2473.38L937.74 2448.38L937.74 2398.38zM1024.35 2598.38L1067.65 2623.38L1067.65 2673.38L1024.35 2698.38L981.05 2673.38L981.05 2623.38zM1024.35 2748.38L1067.65 2773.38L1067.65 2823.38L1024.35 2848.38L981.05 2823.38L981.05 2773.38zM981.05 2823.38L1024.35 2848.38L1024.35 2898.38L981.05 2923.38L937.74 2898.38L937.74 2848.38zM981.05 3123.38L1024.35 3148.38L1024.35 3198.38L981.05 3223.38L937.74 3198.38L937.74 3148.38zM1024.35 3198.38L1067.65 3223.38L1067.65 3273.38L1024.35 3298.38L981.05 3273.38L981.05 3223.38zM1024.35 3348.38L1067.65 3373.38L1067.65 3423.38L1024.35 3448.38L981.05 3423.38L981.05 3373.38zM981.05 3573.38L1024.35 3598.38L1024.35 3648.38L981.05 3673.38L937.74 3648.38L937.74 3598.38zM1024.35 3648.38L1067.65 3673.38L1067.65 3723.38L1024.35 3748.38L981.05 3723.38L981.05 3673.38zM1067.65 123.38L1110.95 148.38L1110.95 198.38L1067.65 223.38L1024.35 198.38L1024.35 148.38zM1110.95 348.38L1154.26 373.38L1154.26 423.38L1110.95 448.38L1067.65 423.38L1067.65 373.38zM1067.65 423.38L1110.95 448.38L1110.95 498.38L1067.65 523.38L1024.35 498.38L1024.35 448.38zM1110.95 948.38L1154.26 973.38L1154.26 1023.38L1110.95 1048.38L1067.65 1023.38L1067.65 973.38zM1110.95 1398.38L1154.26 1423.38L1154.26 1473.38L1110.95 1498.38L1067.65 1473.38L1067.65 1423.38zM1067.65 1623.38L1110.95 1648.38L1110.95 1698.38L1067.65 1723.38L1024.35 1698.38L1024.35 1648.38zM1110.95 1848.38L1154.26 1873.38L1154.26 1923.38L1110.95 1948.38L1067.65 1923.38L1067.65 1873.38zM1067.65 2073.38L1110.95 2098.38L1110.95 2148.38L1067.65 2173.38L1024.35 2148.38L1024.35 2098.38zM1067.65 2373.38L1110.95 2398.38L1110.95 2448.38L1067.65 2473.38L1024.35 2448.38L1024.35 2398.38zM1067.65 2523.38L1110.95 2548.38L1110.95 2598.38L1067.65 2623.38L1024.35 2598.38L1024.35 2548.38zM1067.65 2673.38L1110.95 2698.38L1110.95 2748.38L1067.65 2773.38L1024.35 2748.38L1024.35 2698.38zM1110.95 3048.38L1154.26 3073.38L1154.26 3123.38L1110.95 3148.38L1067.65 3123.38L1067.65 3073.38zM1067.65 3273.38L1110.95 3298.38L1110.95 3348.38L1067.65 3373.38L1024.35 3348.38L1024.35 3298.38zM1110.95 3348.38L1154.26 3373.38L1154.26 3423.38L1110.95 3448.38L1067.65 3423.38L1067.65 3373.38zM1197.56 48.38L1240.86 73.38L1240.86 123.38L1197.56 148.38L1154.26 123.38L1154.26 73.38zM1197.56 348.38L1240.86 373.38L1240.86 423.38L1197.56 448.38L1154.26 423.38L1154.26 373.38zM1197.56 498.38L1240.86 523.38L1240.86 573.38L1197.56 598.38L1154.26 573.38L1154.26 523.38zM1154.26 573.38L1197.56 598.38L1197.56 648.38L1154.26 673.38L1110.95 648.38L1110.95 598.38zM1154.26 1473.38L1197.56 1498.38L1197.56 1548.38L1154.26 1573.38L1110.95 1548.38L1110.95 1498.38zM1154.26 1923.38L1197.56 1948.38L1197.56 1998.38L1154.26 2023.38L1110.95 1998.38L1110.95 1948.38zM1154.26 2073.38L1197.56 2098.38L1197.56 2148.38L1154.26 2173.38L1110.95 2148.38L1110.95 2098.38zM1154.26 2223.38L1197.56 2248.38L1197.56 2298.38L1154.26 2323.38L1110.95 2298.38L1110.95 2248.38zM1154.26 2373.38L1197.56 2398.38L1197.56 2448.38L1154.26 2473.38L1110.95 2448.38L1110.95 2398.38zM1197.56 2598.38L1240.86 2623.38L1240.86 2673.38L1197.56 2698.38L1154.26 2673.38L1154.26 2623.38zM1154.26 2973.38L1197.56 2998.38L1197.56 3048.38L1154.26 3073.38L1110.95 3048.38L1110.95 2998.38zM1197.56 3048.38L1240.86 3073.38L1240.86 3123.38L1197.56 3148.38L1154.26 3123.38L1154.26 3073.38zM1154.26 3123.38L1197.56 3148.38L1197.56 3198.38L1154.26 3223.38L1110.95 3198.38L1110.95 3148.38zM1197.56 3198.38L1240.86 3223.38L1240.86 3273.38L1197.56 3298.38L1154.26 3273.38L1154.26 3223.38zM1240.86 -26.62L1284.16 -1.62L1284.16 48.38L1240.86 73.38L1197.56 48.38L1197.56 -1.62zM1240.86 123.38L1284.16 148.38L1284.16 198.38L1240.86 223.38L1197.56 198.38L1197.56 148.38zM1284.16 498.38L1327.47 523.38L1327.47 573.38L1284.16 598.38L1240.86 573.38L1240.86 523.38zM1240.86 573.38L1284.16 598.38L1284.16 648.38L1240.86 673.38L1197.56 648.38L1197.56 598.38zM1240.86 723.38L1284.16 748.38L1284.16 798.38L1240.86 823.38L1197.56 798.38L1197.56 748.38zM1284.16 798.38L1327.47 823.38L1327.47 873.38L1284.16 898.38L1240.86 873.38L1240.86 823.38zM1240.86 873.38L1284.16 898.38L1284.16 948.38L1240.86 973.38L1197.56 948.38L1197.56 898.38zM1284.16 948.38L1327.47 973.38L1327.47 1023.38L1284.16 1048.38L1240.86 1023.38L1240.86 973.38zM1284.16 1248.38L1327.47 1273.38L1327.47 1323.38L1284.16 1348.38L1240.86 1323.38L1240.86 1273.38zM1284.16 1548.38L1327.47 1573.38L1327.47 1623.38L1284.16 1648.38L1240.86 1623.38L1240.86 1573.38zM1284.16 1848.38L1327.47 1873.38L1327.47 1923.38L1284.16 1948.38L1240.86 1923.38L1240.86 1873.38zM1284.16 1998.38L1327.47 2023.38L1327.47 2073.38L1284.16 2098.38L1240.86 2073.38L1240.86 2023.38zM1240.86 2073.38L1284.16 2098.38L1284.16 2148.38L1240.86 2173.38L1197.56 2148.38L1197.56 2098.38zM1240.86 2373.38L1284.16 2398.38L1284.16 2448.38L1240.86 2473.38L1197.56 2448.38L1197.56 2398.38zM1284.16 2448.38L1327.47 2473.38L1327.47 2523.38L1284.16 2548.38L1240.86 2523.38L1240.86 2473.38zM1284.16 2748.38L1327.47 2773.38L1327.47 2823.38L1284.16 2848.38L1240.86 2823.38L1240.86 2773.38zM1240.86 3423.38L1284.16 3448.38L1284.16 3498.38L1240.86 3523.38L1197.56 3498.38L1197.56 3448.38zM1284.16 3498.38L1327.47 3523.38L1327.47 3573.38L1284.16 3598.38L1240.86 3573.38L1240.86 3523.38zM1240.86 3573.38L1284.16 3598.38L1284.16 3648.38L1240.86 3673.38L1197.56 3648.38L1197.56 3598.38zM1370.77 48.38L1414.07 73.38L1414.07 123.38L1370.77 148.38L1327.47 123.38L1327.47 73.38zM1327.47 123.38L1370.77 148.38L1370.77 198.38L1327.47 223.38L1284.16 198.38L1284.16 148.38zM1327.47 273.38L1370.77 298.38L1370.77 348.38L1327.47 373.38L1284.16 348.38L1284.16 298.38zM1370.77 348.38L1414.07 373.38L1414.07 423.38L1370.77 448.38L1327.47 423.38L1327.47 373.38zM1370.77 648.38L1414.07 673.38L1414.07 723.38L1370.77 748.38L1327.47 723.38L1327.47 673.38zM1327.47 723.38L1370.77 748.38L1370.77 798.38L1327.47 823.38L1284.16 798.38L1284.16 748.38zM1327.47 873.38L1370.77 898.38L1370.77 948.38L1327.47 973.38L1284.16 948.38L1284.16 898.38zM1327.47 1023.38L1370.77 1048.38L1370.77 1098.38L1327.47 1123.38L1284.16 1098.38L1284.16 1048.38zM1370.77 1248.38L1414.07 1273.38L1414.07 1323.38L1370.77 1348.38L1327.47 1323.38L1327.47 1273.38zM1370.77 1398.38L1414.07 1423.38L1414.07 1473.38L1370.77 1498.38L1327.47 1473.38L1327.47 1423.38zM1327.47 1623.38L1370.77 1648.38L1370.77 1698.38L1327.47 1723.38L1284.16 1698.38L1284.16 1648.38zM1370.77 1848.38L1414.07 1873.38L1414.07 1923.38L1370.77 1948.38L1327.47 1923.38L1327.47 1873.38zM1327.47 1923.38L1370.77 1948.38L1370.77 1998.38L1327.47 2023.38L1284.16 1998.38L1284.16 1948.38zM1327.47 2073.38L1370.77 2098.38L1370.77 2148.38L1327.47 2173.38L1284.16 2148.38L1284.16 2098.38zM1370.77 2148.38L1414.07 2173.38L1414.07 2223.38L1370.77 2248.38L1327.47 2223.38L1327.47 2173.38zM1327.47 2223.38L1370.77 2248.38L1370.77 2298.38L1327.47 2323.38L1284.16 2298.38L1284.16 2248.38zM1327.47 2373.38L1370.77 2398.38L1370.77 2448.38L1327.47 2473.38L1284.16 2448.38L1284.16 2398.38zM1370.77 2898.38L1414.07 2923.38L1414.07 2973.38L1370.77 2998.38L1327.47 2973.38L1327.47 2923.38zM1327.47 3273.38L1370.77 3298.38L1370.77 3348.38L1327.47 3373.38L1284.16 3348.38L1284.16 3298.38zM1327.47 3423.38L1370.77 3448.38L1370.77 3498.38L1327.47 3523.38L1284.16 3498.38L1284.16 3448.38zM1370.77 3648.38L1414.07 3673.38L1414.07 3723.38L1370.77 3748.38L1327.47 3723.38L1327.47 3673.38zM1327.47 3723.38L1370.77 3748.38L1370.77 3798.38L1327.47 3823.38L1284.16 3798.38L1284.16 3748.38zM1414.07 123.38L1457.37 148.38L1457.37 198.38L1414.07 223.38L1370.77 198.38L1370.77 148.38zM1457.37 648.38L1500.68 673.38L1500.68 723.38L1457.37 748.38L1414.07 723.38L1414.07 673.38zM1457.37 798.38L1500.68 823.38L1500.68 873.38L1457.37 898.38L1414.07 873.38L1414.07 823.38zM1414.07 1023.38L1457.37 1048.38L1457.37 1098.38L1414.07 1123.38L1370.77 1098.38L1370.77 1048.38zM1414.07 1173.38L1457.37 1198.38L1457.37 1248.38L1414.07 1273.38L1370.77 1248.38L1370.77 1198.38zM1414.07 1323.38L1457.37 1348.38L1457.37 1398.38L1414.07 1423.38L1370.77 1398.38L1370.77 1348.38zM1457.37 1398.38L1500.68 1423.38L1500.68 1473.38L1457.37 1498.38L1414.07 1473.38L1414.07 1423.38zM1457.37 1548.38L1500.68 1573.38L1500.68 1623.38L1457.37 1648.38L1414.07 1623.38L1414.07 1573.38zM1457.37 1848.38L1500.68 1873.38L1500.68 1923.38L1457.37 1948.38L1414.07 1923.38L1414.07 1873.38zM1414.07 1923.38L1457.37 1948.38L1457.37 1998.38L1414.07 2023.38L1370.77 1998.38L1370.77 1948.38zM1414.07 2673.38L1457.37 2698.38L1457.37 2748.38L1414.07 2773.38L1370.77 2748.38L1370.77 2698.38zM1457.37 2748.38L1500.68 2773.38L1500.68 2823.38L1457.37 2848.38L1414.07 2823.38L1414.07 2773.38zM1414.07 2823.38L1457.37 2848.38L1457.37 2898.38L1414.07 2923.38L1370.77 2898.38L1370.77 2848.38zM1457.37 3198.38L1500.68 3223.38L1500.68 3273.38L1457.37 3298.38L1414.07 3273.38L1414.07 3223.38zM1543.98 48.38L1587.28 73.38L1587.28 123.38L1543.98 148.38L1500.68 123.38L1500.68 73.38zM1500.68 273.38L1543.98 298.38L1543.98 348.38L1500.68 373.38L1457.37 348.38L1457.37 298.38zM1500.68 423.38L1543.98 448.38L1543.98 498.38L1500.68 523.38L1457.37 498.38L1457.37 448.38zM1500.68 573.38L1543.98 598.38L1543.98 648.38L1500.68 673.38L1457.37 648.38L1457.37 598.38zM1543.98 648.38L1587.28 673.38L1587.28 723.38L1543.98 748.38L1500.68 723.38L1500.68 673.38zM1543.98 1098.38L1587.28 1123.38L1587.28 1173.38L1543.98 1198.38L1500.68 1173.38L1500.68 1123.38zM1500.68 1323.38L1543.98 1348.38L1543.98 1398.38L1500.68 1423.38L1457.37 1398.38L1457.37 1348.38zM1500.68 1473.38L1543.98 1498.38L1543.98 1548.38L1500.68 1573.38L1457.37 1548.38L1457.37 1498.38zM1500.68 1623.38L1543.98 1648.38L1543.98 1698.38L1500.68 1723.38L1457.37 1698.38L1457.37 1648.38zM1500.68 1773.38L1543.98 1798.38L1543.98 1848.38L1500.68 1873.38L1457.37 1848.38L1457.37 1798.38zM1543.98 1848.38L1587.28 1873.38L1587.28 1923.38L1543.98 1948.38L1500.68 1923.38L1500.68 1873.38zM1500.68 1923.38L1543.98 1948.38L1543.98 1998.38L1500.68 2023.38L1457.37 1998.38L1457.37 1948.38zM1500.68 2073.38L1543.98 2098.38L1543.98 2148.38L1500.68 2173.38L1457.37 2148.38L1457.37 2098.38zM1543.98 2148.38L1587.28 2173.38L1587.28 2223.38L1543.98 2248.38L1500.68 2223.38L1500.68 2173.38zM1543.98 2298.38L1587.28 2323.38L1587.28 2373.38L1543.98 2398.38L1500.68 2373.38L1500.68 2323.38zM1500.68 2823.38L1543.98 2848.38L1543.98 2898.38L1500.68 2923.38L1457.37 2898.38L1457.37 2848.38zM1500.68 2973.38L1543.98 2998.38L1543.98 3048.38L1500.68 3073.38L1457.37 3048.38L1457.37 2998.38zM1543.98 3048.38L1587.28 3073.38L1587.28 3123.38L1543.98 3148.38L1500.68 3123.38L1500.68 3073.38zM1500.68 3123.38L1543.98 3148.38L1543.98 3198.38L1500.68 3223.38L1457.37 3198.38L1457.37 3148.38zM1543.98 3198.38L1587.28 3223.38L1587.28 3273.38L1543.98 3298.38L1500.68 3273.38L1500.68 3223.38zM1543.98 3498.38L1587.28 3523.38L1587.28 3573.38L1543.98 3598.38L1500.68 3573.38L1500.68 3523.38zM1500.68 3723.38L1543.98 3748.38L1543.98 3798.38L1500.68 3823.38L1457.37 3798.38L1457.37 3748.38z" stroke="rgba(255, 255, 255, 0.93)" stroke-width="2"></path></g><defs><mask id="SvgjsMask1018"><rect width="1520" height="3730" fill="#ffffff"></rect></mask></defs></svg>