<svg xmlns="http://www.w3.org/2000/svg" version="1.1" xmlns:xlink="http://www.w3.org/1999/xlink" xmlns:svgjs="http://svgjs.dev/svgjs" width="975" height="640" preserveAspectRatio="none" viewBox="0 0 975 640"><g mask="url(&quot;#SvgjsMask1064&quot;)" fill="none"><path d="M66.58202826401582 441.69848885926194L8.048311712778286 531.8325081783664 156.71604758312026 500.2322054104995z" fill="rgba(46, 179, 254, 0.4)" class="triangle-float1"></path><path d="M508.08655917161053 197.87356086073385L557.4328979194242 96.69857295821797 406.9115712690947 148.5272221129201z" fill="rgba(46, 179, 254, 0.4)" class="triangle-float1"></path><path d="M957.2267774982289 281.4272537676538L805.9592943185054 399.6103641338184 924.14240468467 550.8778473135419 1075.4098878643936 432.6947369473773z" fill="rgba(46, 179, 254, 0.4)" class="triangle-float1"></path><path d="M90.03422224448377 81.90096764684255L-46.403741337421394-36.93121936749952-79.28769215794946 117.77560578136567z" fill="rgba(46, 179, 254, 0.4)" class="triangle-float3"></path><path d="M213.8,203.177C266.449,205.826,321.303,185.771,347.032,139.76C372.294,94.585,357.169,39.792,329.694,-4.073C304.127,-44.893,261.941,-71.396,213.8,-72.954C162.644,-74.609,109.092,-56.71,84.142,-12.02C59.66,31.832,76.01,84.409,101.929,127.427C126.839,168.771,165.593,200.751,213.8,203.177" fill="rgba(46, 179, 254, 0.4)" class="triangle-float2"></path><path d="M539.144,425.848C581.862,425.536,619.993,403.739,644.02,368.417C672.059,327.196,693.255,276.326,671.297,231.569C647.236,182.524,593.67,151.288,539.144,154.649C489.001,157.74,454.938,201.347,432.487,246.289C412.739,285.819,409.011,331.979,431.578,369.97C453.694,407.202,495.84,426.165,539.144,425.848" fill="rgba(46, 179, 254, 0.4)" class="triangle-float1"></path><path d="M884.5512655328612 526.1763769611167L891.6412227846912 627.5674893938924 985.9423779656368 519.0864197092867z" fill="rgba(46, 179, 254, 0.4)" class="triangle-float3"></path><path d="M824.454,283.979C856.034,283.694,879.211,256.48,892.872,228.007C904.656,203.447,900.244,176.165,887.811,151.927C873.882,124.771,854.968,95.249,824.454,94.623C793.295,93.983,770.898,121.628,756.426,149.23C743.142,174.566,740.971,203.725,753.863,229.262C768.244,257.747,792.546,284.267,824.454,283.979" fill="rgba(46, 179, 254, 0.4)" class="triangle-float1"></path><path d="M979.9363385474198 590.9069973684079L974.8080869176578 493.05412705185296 876.9552166011028 498.18237868161503 882.0834682308649 596.03524899817z" fill="rgba(46, 179, 254, 0.4)" class="triangle-float1"></path><path d="M182.504,720.98C248.367,721.138,310.852,686.284,341.763,628.125C371.046,573.028,357.988,506.824,324.206,454.365C293.324,406.409,239.512,378.942,182.504,380.813C128.618,382.582,85.129,417.767,56.047,463.166C23.828,513.461,-1.739,573.736,24.565,627.362C53.451,686.253,116.91,720.822,182.504,720.98" fill="rgba(46, 179, 254, 0.4)" class="triangle-float2"></path><path d="M209.178,228.333C241.632,227.107,270.24,207.999,285.874,179.532C300.925,152.126,298.245,119.884,284.032,92.034C268.166,60.946,244.075,28.631,209.178,29.254C174.869,29.866,155.55,64.671,138.812,94.626C122.658,123.535,106.316,156.428,121.739,185.734C137.922,216.485,174.454,229.645,209.178,228.333" fill="rgba(46, 179, 254, 0.4)" class="triangle-float3"></path><path d="M723.9540082937446 399.7916979438456L678.8552465607886 330.34569483984484 597.2356227712655 432.71683899127913z" fill="rgba(46, 179, 254, 0.4)" class="triangle-float3"></path><path d="M54.07253649422775 332.85468762306084L-42.77651374264609 362.4644137506043 83.68226262177122 429.7037378599347z" fill="rgba(46, 179, 254, 0.4)" class="triangle-float2"></path><path d="M835.9024700357147 118.27164132321154L949.5500968731474 72.35501957696133 903.6334751268971-41.292607260471314 789.9858482894645 4.6240144857789005z" fill="rgba(46, 179, 254, 0.4)" class="triangle-float3"></path></g><defs><mask id="SvgjsMask1064"><rect width="975" height="640" fill="#ffffff"></rect></mask><style>
                @keyframes float1 {
                    0%{transform: translate(0, 0)}
                    50%{transform: translate(-10px, 0)}
                    100%{transform: translate(0, 0)}
                }

                .triangle-float1 {
                    animation: float1 5s infinite;
                }

                @keyframes float2 {
                    0%{transform: translate(0, 0)}
                    50%{transform: translate(-5px, -5px)}
                    100%{transform: translate(0, 0)}
                }

                .triangle-float2 {
                    animation: float2 4s infinite;
                }

                @keyframes float3 {
                    0%{transform: translate(0, 0)}
                    50%{transform: translate(0, -10px)}
                    100%{transform: translate(0, 0)}
                }

                .triangle-float3 {
                    animation: float3 6s infinite;
                }
            </style></defs></svg>